<svg xmlns="http://www.w3.org/2000/svg" viewBox="0 0 1480 400" width="1480" height="400">
<defs><linearGradient id="nbT" x1="0" y1="0" x2="0.6" y2="1"><stop offset="0" stop-color="#2A3340"/><stop offset="1" stop-color="#171E28"/></linearGradient><linearGradient id="nbL" x1="0" y1="0" x2="0.2" y2="1"><stop offset="0" stop-color="#171E28"/><stop offset="1" stop-color="#0D131B"/></linearGradient><linearGradient id="nbR" x1="1" y1="0" x2="0" y2="1"><stop offset="0" stop-color="#11161E"/><stop offset="1" stop-color="#080C12"/></linearGradient><linearGradient id="nbLT" x1="0" y1="0" x2="0.6" y2="1"><stop offset="0" stop-color="#222A35"/><stop offset="1" stop-color="#141A22"/></linearGradient><linearGradient id="nbLL" x1="0" y1="0" x2="0.2" y2="1"><stop offset="0" stop-color="#171E28"/><stop offset="1" stop-color="#0D131B"/></linearGradient><linearGradient id="nbLR" x1="1" y1="0" x2="0" y2="1"><stop offset="0" stop-color="#11161E"/><stop offset="1" stop-color="#080C12"/></linearGradient><linearGradient id="sbT" x1="0" y1="0" x2="0.6" y2="1"><stop offset="0" stop-color="#2C3644"/><stop offset="1" stop-color="#1A222D"/></linearGradient><linearGradient id="sbL" x1="0" y1="0" x2="0.2" y2="1"><stop offset="0" stop-color="#171E28"/><stop offset="1" stop-color="#0D131B"/></linearGradient><linearGradient id="sbR" x1="1" y1="0" x2="0" y2="1"><stop offset="0" stop-color="#11161E"/><stop offset="1" stop-color="#080C12"/></linearGradient><linearGradient id="pcT" x1="0" y1="0" x2="0.6" y2="1"><stop offset="0" stop-color="#252B34"/><stop offset="1" stop-color="#191E26"/></linearGradient><linearGradient id="pcL" x1="0" y1="0" x2="0.2" y2="1"><stop offset="0" stop-color="#1B2029"/><stop offset="1" stop-color="#12161D"/></linearGradient><linearGradient id="pcR" x1="1" y1="0" x2="0" y2="1"><stop offset="0" stop-color="#141920"/><stop offset="1" stop-color="#0C1016"/></linearGradient><linearGradient id="lidT" x1="0.2" y1="0" x2="0.8" y2="1"><stop offset="0" stop-color="#222A35"/><stop offset="1" stop-color="#10161E"/></linearGradient><radialGradient id="wall" cx="0.5" cy="0.42" r="0.85"><stop offset="0" stop-color="#161D28"/><stop offset="0.55" stop-color="#0C111A"/><stop offset="1" stop-color="#04060A"/></radialGradient><linearGradient id="floor" x1="0" y1="0" x2="0" y2="1"><stop offset="0" stop-color="#0B1017"/><stop offset="0.55" stop-color="#070A10"/><stop offset="1" stop-color="#04060A"/></linearGradient><linearGradient id="fade" x1="0" y1="0" x2="0" y2="1"><stop offset="0" stop-color="#070A10" stop-opacity="0.2"/><stop offset="0.5" stop-color="#070A10" stop-opacity="0.85"/><stop offset="1" stop-color="#04060A" stop-opacity="1"/></linearGradient><radialGradient id="haze" cx="0.5" cy="0.5" r="0.5"><stop offset="0" stop-color="#00D9A3" stop-opacity="0.13"/><stop offset="1" stop-color="#00D9A3" stop-opacity="0"/></radialGradient></defs>
<rect x="-1480" y="-400" width="4440" height="1200" fill="url(#wall)"/>
<rect x="-1480" y="214" width="4440" height="1200" fill="url(#floor)"/>
<ellipse cx="820" cy="250" rx="700" ry="190" fill="url(#haze)"/>
<line x1="-1480" y1="214" x2="2960" y2="214" stroke="#141A24" stroke-width="1" opacity="0.8"/>
<g opacity="0.16" transform="translate(0,691.9200000000001) scale(1,-0.86)"><polygon points="1187.85,252.0 980.0,372.0 980.0,267.0 1187.85,147.0" fill="url(#sbR)" stroke="none" stroke-width="1" opacity="1.0"/><polygon points="694.21,207.0 980.0,372.0 980.0,267.0 694.21,102.0" fill="url(#sbL)" stroke="none" stroke-width="1" opacity="1.0"/><polygon points="902.06,-18.0 1187.85,147.0 980.0,267.0 694.21,102.0" fill="url(#sbT)" stroke="none" stroke-width="1" opacity="1.0"/><line x1="902.06" y1="-18.0" x2="1187.85" y2="147.0" stroke="#4A596B" stroke-width="1.4" opacity="0.85"/><line x1="902.06" y1="-18.0" x2="694.21" y2="102.0" stroke="#3B485A" stroke-width="1.4" opacity="0.6"/><line x1="694.21" y1="102.0" x2="980.0" y2="267.0" stroke="#5A6A7E" stroke-width="1.2" opacity="0.5"/><line x1="1187.85" y1="147.0" x2="980.0" y2="267.0" stroke="#2E3A48" stroke-width="1.2" opacity="0.75"/><line x1="694.21" y1="207.0" x2="694.21" y2="102.0" stroke="#3B485A" stroke-width="1.1" opacity="0.5"/><line x1="980.0" y1="372.0" x2="980.0" y2="267.0" stroke="#46546A" stroke-width="1.4" opacity="0.65"/><line x1="1187.85" y1="147.0" x2="1187.85" y2="252.0" stroke="#00D9A3" stroke-width="1.2" opacity="0.22"/><line x1="1187.85" y1="147.0" x2="980.0" y2="267.0" stroke="#00D9A3" stroke-width="1.0" opacity="0.14"/><line x1="1154.07" y1="145.5" x2="1154.07" y2="70.5" stroke="#2A3442" stroke-width="5.4" opacity="1.0"/><line x1="1154.07" y1="145.5" x2="1154.07" y2="70.5" stroke="#54637A" stroke-width="2.4" opacity="1.0"/><circle cx="1154.07" cy="70.5" r="3" fill="#3B485A"/><g transform="matrix(1.2990,0.7500,-1.2990,0.7500,902.058,-18.000)"><rect x="16" y="10" width="46" height="16" fill="#080C12" stroke="#232C38" stroke-width="1"/><line x1="18" y1="26" x2="60" y2="26" stroke="#00D9A3" stroke-width="4" opacity="0.09"/><line x1="18" y1="26" x2="60" y2="26" stroke="#00D9A3" stroke-width="2" opacity="0.20"/><line x1="18" y1="26" x2="60" y2="26" stroke="#00D9A3" stroke-width="1" opacity="0.95"/><rect x="78" y="10" width="46" height="16" fill="#080C12" stroke="#232C38" stroke-width="1"/><line x1="80" y1="26" x2="122" y2="26" stroke="#00D9A3" stroke-width="4" opacity="0.09"/><line x1="80" y1="26" x2="122" y2="26" stroke="#00D9A3" stroke-width="2" opacity="0.20"/><line x1="80" y1="26" x2="122" y2="26" stroke="#00D9A3" stroke-width="1" opacity="0.95"/><rect x="140" y="10" width="46" height="16" fill="#080C12" stroke="#232C38" stroke-width="1"/><line x1="142" y1="26" x2="184" y2="26" stroke="#00D9A3" stroke-width="4" opacity="0.09"/><line x1="142" y1="26" x2="184" y2="26" stroke="#00D9A3" stroke-width="2" opacity="0.20"/><line x1="142" y1="26" x2="184" y2="26" stroke="#00D9A3" stroke-width="1" opacity="0.95"/><rect x="78" y="10" width="46" height="16" fill="#121821" stroke="#2E3A48" stroke-width="1"/><rect x="78" y="10" width="46" height="16" fill="none" stroke="#00D9A3" stroke-width="2.8800000000000003" opacity="0.10"/><rect x="78" y="10" width="46" height="16" fill="none" stroke="#00D9A3" stroke-width="1.71" opacity="0.18"/><rect x="78" y="10" width="46" height="16" fill="none" stroke="#00D9A3" stroke-width="0.9" opacity="0.95"/><rect x="52" y="46" width="116" height="44" fill="#05080C" stroke="#232C38" stroke-width="1"/><rect x="52" y="46" width="116" height="44" fill="none" stroke="#00D9A3" stroke-width="2.8800000000000003" opacity="0.10"/><rect x="52" y="46" width="116" height="44" fill="none" stroke="#00D9A3" stroke-width="1.71" opacity="0.18"/><rect x="52" y="46" width="116" height="44" fill="none" stroke="#00D9A3" stroke-width="0.9" opacity="0.95"/><text x="110" y="70" font-family="ui-monospace, 'IBM Plex Mono', 'SFMono-Regular', 'Courier New', monospace" font-size="15" fill="#00D9A3" text-anchor="middle" letter-spacing="0.18em">PROVEN</text><rect x="54.0" y="104" width="9" height="9" fill="#00D9A3" opacity="0.9"/><rect x="52.5" y="102.5" width="12" height="12" fill="#00D9A3" opacity="0.12"/><rect x="68.4" y="104" width="9" height="9" fill="#00D9A3" opacity="0.9"/><rect x="66.9" y="102.5" width="12" height="12" fill="#00D9A3" opacity="0.12"/><rect x="82.8" y="104" width="9" height="9" fill="#00D9A3" opacity="0.9"/><rect x="81.3" y="102.5" width="12" height="12" fill="#00D9A3" opacity="0.12"/><rect x="97.2" y="104" width="9" height="9" fill="#00D9A3" opacity="0.9"/><rect x="95.7" y="102.5" width="12" height="12" fill="#00D9A3" opacity="0.12"/><rect x="111.6" y="104" width="9" height="9" fill="#00D9A3" opacity="0.9"/><rect x="110.1" y="102.5" width="12" height="12" fill="#00D9A3" opacity="0.12"/><rect x="126.0" y="104" width="9" height="9" fill="none" stroke="#2B3542" stroke-width="1"/><rect x="140.4" y="104" width="9" height="9" fill="none" stroke="#2B3542" stroke-width="1"/><rect x="154.8" y="104" width="9" height="9" fill="none" stroke="#2B3542" stroke-width="1"/><g opacity="0.7"><path d="M 185 132 q 11 -9.35 22 0 q -11 9.35 -22 0 z" fill="none" stroke="#00D9A3" stroke-width="1.76"/><circle cx="196" cy="132" r="3.74" fill="none" stroke="#00D9A3" stroke-width="1.76"/><line x1="185.55" y1="139.7" x2="206.45" y2="124.3" stroke="#00D9A3" stroke-width="1.9360000000000002"/></g></g><g transform="matrix(1.2990,0.7500,0.0000,1.5000,694.212,102.000)"><rect x="16" y="40" width="7" height="9" fill="#00D9A3" opacity="0.95"/><rect x="15" y="39" width="9" height="11" fill="#00D9A3" opacity="0.10"/><rect x="27" y="40" width="7" height="7" fill="#00D9A3" opacity="0.85"/><rect x="26" y="39" width="9" height="9" fill="#00D9A3" opacity="0.10"/><rect x="38" y="40" width="7" height="5" fill="#00D9A3" opacity="0.75"/><rect x="37" y="39" width="9" height="7" fill="#00D9A3" opacity="0.10"/><rect x="49" y="40" width="7" height="9" fill="#00D9A3" opacity="0.6499999999999999"/><rect x="48" y="39" width="9" height="11" fill="#00D9A3" opacity="0.10"/><rect x="60" y="40" width="7" height="7" fill="#00D9A3" opacity="0.5499999999999999"/><rect x="59" y="39" width="9" height="9" fill="#00D9A3" opacity="0.10"/><rect x="71" y="40" width="7" height="5" fill="#00D9A3" opacity="0.44999999999999996"/><rect x="70" y="39" width="9" height="7" fill="#00D9A3" opacity="0.10"/><rect x="14" y="38" width="76" height="18" fill="none" stroke="#222B36" stroke-width="1"/><rect x="120" y="42" width="20" height="12" fill="#0A0F16" stroke="#39424F" stroke-width="1"/><rect x="121" y="43" width="18" height="5" fill="#2B3542"/><text x="146" y="52" font-family="ui-monospace, 'IBM Plex Mono', 'SFMono-Regular', 'Courier New', monospace" font-size="9" fill="#7D8A9C" letter-spacing="0.2em">NET</text><rect x="176" y="42" width="30" height="12" fill="#080C12" stroke="#232C38" stroke-width="1"/><line x1="178" y1="48" x2="204" y2="48" stroke="#00D9A3" stroke-width="4" opacity="0.09"/><line x1="178" y1="48" x2="204" y2="48" stroke="#00D9A3" stroke-width="2" opacity="0.20"/><line x1="178" y1="48" x2="204" y2="48" stroke="#00D9A3" stroke-width="1" opacity="0.95"/></g><g transform="matrix(-1.2990,0.7500,0.0000,-1.5000,1187.846,252.000)"><line x1="8.0" y1="8" x2="8.0" y2="62" stroke="#04070B" stroke-width="4" opacity="0.92"/><line x1="10.4" y1="8" x2="10.4" y2="62" stroke="#3D4754" stroke-width="1.3" opacity="0.6"/><line x1="21.6" y1="8" x2="21.6" y2="62" stroke="#04070B" stroke-width="4" opacity="0.92"/><line x1="24.0" y1="8" x2="24.0" y2="62" stroke="#3D4754" stroke-width="1.3" opacity="0.6"/><line x1="35.2" y1="8" x2="35.2" y2="62" stroke="#04070B" stroke-width="4" opacity="0.92"/><line x1="37.6" y1="8" x2="37.6" y2="62" stroke="#3D4754" stroke-width="1.3" opacity="0.6"/><line x1="48.8" y1="8" x2="48.8" y2="62" stroke="#04070B" stroke-width="4" opacity="0.92"/><line x1="51.199999999999996" y1="8" x2="51.199999999999996" y2="62" stroke="#3D4754" stroke-width="1.3" opacity="0.6"/><line x1="62.4" y1="8" x2="62.4" y2="62" stroke="#04070B" stroke-width="4" opacity="0.92"/><line x1="64.8" y1="8" x2="64.8" y2="62" stroke="#3D4754" stroke-width="1.3" opacity="0.6"/><line x1="76.0" y1="8" x2="76.0" y2="62" stroke="#04070B" stroke-width="4" opacity="0.92"/><line x1="78.4" y1="8" x2="78.4" y2="62" stroke="#3D4754" stroke-width="1.3" opacity="0.6"/><line x1="89.6" y1="8" x2="89.6" y2="62" stroke="#04070B" stroke-width="4" opacity="0.92"/><line x1="92.0" y1="8" x2="92.0" y2="62" stroke="#3D4754" stroke-width="1.3" opacity="0.6"/><line x1="103.2" y1="8" x2="103.2" y2="62" stroke="#04070B" stroke-width="4" opacity="0.92"/><line x1="105.60000000000001" y1="8" x2="105.60000000000001" y2="62" stroke="#3D4754" stroke-width="1.3" opacity="0.6"/><line x1="116.8" y1="8" x2="116.8" y2="62" stroke="#04070B" stroke-width="4" opacity="0.92"/><line x1="119.2" y1="8" x2="119.2" y2="62" stroke="#3D4754" stroke-width="1.3" opacity="0.6"/><line x1="130.39999999999998" y1="8" x2="130.39999999999998" y2="62" stroke="#04070B" stroke-width="4" opacity="0.92"/><line x1="132.79999999999998" y1="8" x2="132.79999999999998" y2="62" stroke="#3D4754" stroke-width="1.3" opacity="0.6"/><line x1="144.0" y1="8" x2="144.0" y2="62" stroke="#04070B" stroke-width="4" opacity="0.92"/><line x1="146.4" y1="8" x2="146.4" y2="62" stroke="#3D4754" stroke-width="1.3" opacity="0.6"/></g></g><rect x="-100" y="330" width="1700" height="260" fill="url(#fade)"/><ellipse cx="941.03" cy="369.0" rx="459.08" ry="96.41" fill="#04060A" opacity="0.15"/><ellipse cx="941.03" cy="369.0" rx="351.96" ry="73.91" fill="#04060A" opacity="0.22"/><ellipse cx="941.03" cy="369.0" rx="260.15" ry="54.63" fill="#04060A" opacity="0.3"/><ellipse cx="941.03" cy="369.0" rx="168.33" ry="35.35" fill="#04060A" opacity="0.36"/><polygon points="1187.85,252.0 980.0,372.0 980.0,267.0 1187.85,147.0" fill="url(#sbR)" stroke="none" stroke-width="1" opacity="1.0"/><polygon points="694.21,207.0 980.0,372.0 980.0,267.0 694.21,102.0" fill="url(#sbL)" stroke="none" stroke-width="1" opacity="1.0"/><polygon points="902.06,-18.0 1187.85,147.0 980.0,267.0 694.21,102.0" fill="url(#sbT)" stroke="none" stroke-width="1" opacity="1.0"/><line x1="902.06" y1="-18.0" x2="1187.85" y2="147.0" stroke="#4A596B" stroke-width="1.4" opacity="0.85"/><line x1="902.06" y1="-18.0" x2="694.21" y2="102.0" stroke="#3B485A" stroke-width="1.4" opacity="0.6"/><line x1="694.21" y1="102.0" x2="980.0" y2="267.0" stroke="#5A6A7E" stroke-width="1.2" opacity="0.5"/><line x1="1187.85" y1="147.0" x2="980.0" y2="267.0" stroke="#2E3A48" stroke-width="1.2" opacity="0.75"/><line x1="694.21" y1="207.0" x2="694.21" y2="102.0" stroke="#3B485A" stroke-width="1.1" opacity="0.5"/><line x1="980.0" y1="372.0" x2="980.0" y2="267.0" stroke="#46546A" stroke-width="1.4" opacity="0.65"/><line x1="1187.85" y1="147.0" x2="1187.85" y2="252.0" stroke="#00D9A3" stroke-width="1.2" opacity="0.22"/><line x1="1187.85" y1="147.0" x2="980.0" y2="267.0" stroke="#00D9A3" stroke-width="1.0" opacity="0.14"/><line x1="1154.07" y1="145.5" x2="1154.07" y2="70.5" stroke="#2A3442" stroke-width="5.4" opacity="1.0"/><line x1="1154.07" y1="145.5" x2="1154.07" y2="70.5" stroke="#54637A" stroke-width="2.4" opacity="1.0"/><circle cx="1154.07" cy="70.5" r="3" fill="#3B485A"/><g transform="matrix(1.2990,0.7500,-1.2990,0.7500,902.058,-18.000)"><rect x="16" y="10" width="46" height="16" fill="#080C12" stroke="#232C38" stroke-width="1"/><line x1="18" y1="26" x2="60" y2="26" stroke="#00D9A3" stroke-width="4" opacity="0.09"/><line x1="18" y1="26" x2="60" y2="26" stroke="#00D9A3" stroke-width="2" opacity="0.20"/><line x1="18" y1="26" x2="60" y2="26" stroke="#00D9A3" stroke-width="1" opacity="0.95"/><rect x="78" y="10" width="46" height="16" fill="#080C12" stroke="#232C38" stroke-width="1"/><line x1="80" y1="26" x2="122" y2="26" stroke="#00D9A3" stroke-width="4" opacity="0.09"/><line x1="80" y1="26" x2="122" y2="26" stroke="#00D9A3" stroke-width="2" opacity="0.20"/><line x1="80" y1="26" x2="122" y2="26" stroke="#00D9A3" stroke-width="1" opacity="0.95"/><rect x="140" y="10" width="46" height="16" fill="#080C12" stroke="#232C38" stroke-width="1"/><line x1="142" y1="26" x2="184" y2="26" stroke="#00D9A3" stroke-width="4" opacity="0.09"/><line x1="142" y1="26" x2="184" y2="26" stroke="#00D9A3" stroke-width="2" opacity="0.20"/><line x1="142" y1="26" x2="184" y2="26" stroke="#00D9A3" stroke-width="1" opacity="0.95"/><rect x="78" y="10" width="46" height="16" fill="#121821" stroke="#2E3A48" stroke-width="1"/><rect x="78" y="10" width="46" height="16" fill="none" stroke="#00D9A3" stroke-width="2.8800000000000003" opacity="0.10"/><rect x="78" y="10" width="46" height="16" fill="none" stroke="#00D9A3" stroke-width="1.71" opacity="0.18"/><rect x="78" y="10" width="46" height="16" fill="none" stroke="#00D9A3" stroke-width="0.9" opacity="0.95"/><rect x="52" y="46" width="116" height="44" fill="#05080C" stroke="#232C38" stroke-width="1"/><rect x="52" y="46" width="116" height="44" fill="none" stroke="#00D9A3" stroke-width="2.8800000000000003" opacity="0.10"/><rect x="52" y="46" width="116" height="44" fill="none" stroke="#00D9A3" stroke-width="1.71" opacity="0.18"/><rect x="52" y="46" width="116" height="44" fill="none" stroke="#00D9A3" stroke-width="0.9" opacity="0.95"/><text x="110" y="70" font-family="ui-monospace, 'IBM Plex Mono', 'SFMono-Regular', 'Courier New', monospace" font-size="15" fill="#00D9A3" text-anchor="middle" letter-spacing="0.18em">PROVEN</text><rect x="54.0" y="104" width="9" height="9" fill="#00D9A3" opacity="0.9"/><rect x="52.5" y="102.5" width="12" height="12" fill="#00D9A3" opacity="0.12"/><rect x="68.4" y="104" width="9" height="9" fill="#00D9A3" opacity="0.9"/><rect x="66.9" y="102.5" width="12" height="12" fill="#00D9A3" opacity="0.12"/><rect x="82.8" y="104" width="9" height="9" fill="#00D9A3" opacity="0.9"/><rect x="81.3" y="102.5" width="12" height="12" fill="#00D9A3" opacity="0.12"/><rect x="97.2" y="104" width="9" height="9" fill="#00D9A3" opacity="0.9"/><rect x="95.7" y="102.5" width="12" height="12" fill="#00D9A3" opacity="0.12"/><rect x="111.6" y="104" width="9" height="9" fill="#00D9A3" opacity="0.9"/><rect x="110.1" y="102.5" width="12" height="12" fill="#00D9A3" opacity="0.12"/><rect x="126.0" y="104" width="9" height="9" fill="none" stroke="#2B3542" stroke-width="1"/><rect x="140.4" y="104" width="9" height="9" fill="none" stroke="#2B3542" stroke-width="1"/><rect x="154.8" y="104" width="9" height="9" fill="none" stroke="#2B3542" stroke-width="1"/><g opacity="0.7"><path d="M 185 132 q 11 -9.35 22 0 q -11 9.35 -22 0 z" fill="none" stroke="#00D9A3" stroke-width="1.76"/><circle cx="196" cy="132" r="3.74" fill="none" stroke="#00D9A3" stroke-width="1.76"/><line x1="185.55" y1="139.7" x2="206.45" y2="124.3" stroke="#00D9A3" stroke-width="1.9360000000000002"/></g></g><g transform="matrix(1.2990,0.7500,0.0000,1.5000,694.212,102.000)"><rect x="16" y="40" width="7" height="9" fill="#00D9A3" opacity="0.95"/><rect x="15" y="39" width="9" height="11" fill="#00D9A3" opacity="0.10"/><rect x="27" y="40" width="7" height="7" fill="#00D9A3" opacity="0.85"/><rect x="26" y="39" width="9" height="9" fill="#00D9A3" opacity="0.10"/><rect x="38" y="40" width="7" height="5" fill="#00D9A3" opacity="0.75"/><rect x="37" y="39" width="9" height="7" fill="#00D9A3" opacity="0.10"/><rect x="49" y="40" width="7" height="9" fill="#00D9A3" opacity="0.6499999999999999"/><rect x="48" y="39" width="9" height="11" fill="#00D9A3" opacity="0.10"/><rect x="60" y="40" width="7" height="7" fill="#00D9A3" opacity="0.5499999999999999"/><rect x="59" y="39" width="9" height="9" fill="#00D9A3" opacity="0.10"/><rect x="71" y="40" width="7" height="5" fill="#00D9A3" opacity="0.44999999999999996"/><rect x="70" y="39" width="9" height="7" fill="#00D9A3" opacity="0.10"/><rect x="14" y="38" width="76" height="18" fill="none" stroke="#222B36" stroke-width="1"/><rect x="120" y="42" width="20" height="12" fill="#0A0F16" stroke="#39424F" stroke-width="1"/><rect x="121" y="43" width="18" height="5" fill="#2B3542"/><text x="146" y="52" font-family="ui-monospace, 'IBM Plex Mono', 'SFMono-Regular', 'Courier New', monospace" font-size="9" fill="#7D8A9C" letter-spacing="0.2em">NET</text><rect x="176" y="42" width="30" height="12" fill="#080C12" stroke="#232C38" stroke-width="1"/><line x1="178" y1="48" x2="204" y2="48" stroke="#00D9A3" stroke-width="4" opacity="0.09"/><line x1="178" y1="48" x2="204" y2="48" stroke="#00D9A3" stroke-width="2" opacity="0.20"/><line x1="178" y1="48" x2="204" y2="48" stroke="#00D9A3" stroke-width="1" opacity="0.95"/></g><g transform="matrix(-1.2990,0.7500,0.0000,-1.5000,1187.846,252.000)"><line x1="8.0" y1="8" x2="8.0" y2="62" stroke="#04070B" stroke-width="4" opacity="0.92"/><line x1="10.4" y1="8" x2="10.4" y2="62" stroke="#3D4754" stroke-width="1.3" opacity="0.6"/><line x1="21.6" y1="8" x2="21.6" y2="62" stroke="#04070B" stroke-width="4" opacity="0.92"/><line x1="24.0" y1="8" x2="24.0" y2="62" stroke="#3D4754" stroke-width="1.3" opacity="0.6"/><line x1="35.2" y1="8" x2="35.2" y2="62" stroke="#04070B" stroke-width="4" opacity="0.92"/><line x1="37.6" y1="8" x2="37.6" y2="62" stroke="#3D4754" stroke-width="1.3" opacity="0.6"/><line x1="48.8" y1="8" x2="48.8" y2="62" stroke="#04070B" stroke-width="4" opacity="0.92"/><line x1="51.199999999999996" y1="8" x2="51.199999999999996" y2="62" stroke="#3D4754" stroke-width="1.3" opacity="0.6"/><line x1="62.4" y1="8" x2="62.4" y2="62" stroke="#04070B" stroke-width="4" opacity="0.92"/><line x1="64.8" y1="8" x2="64.8" y2="62" stroke="#3D4754" stroke-width="1.3" opacity="0.6"/><line x1="76.0" y1="8" x2="76.0" y2="62" stroke="#04070B" stroke-width="4" opacity="0.92"/><line x1="78.4" y1="8" x2="78.4" y2="62" stroke="#3D4754" stroke-width="1.3" opacity="0.6"/><line x1="89.6" y1="8" x2="89.6" y2="62" stroke="#04070B" stroke-width="4" opacity="0.92"/><line x1="92.0" y1="8" x2="92.0" y2="62" stroke="#3D4754" stroke-width="1.3" opacity="0.6"/><line x1="103.2" y1="8" x2="103.2" y2="62" stroke="#04070B" stroke-width="4" opacity="0.92"/><line x1="105.60000000000001" y1="8" x2="105.60000000000001" y2="62" stroke="#3D4754" stroke-width="1.3" opacity="0.6"/><line x1="116.8" y1="8" x2="116.8" y2="62" stroke="#04070B" stroke-width="4" opacity="0.92"/><line x1="119.2" y1="8" x2="119.2" y2="62" stroke="#3D4754" stroke-width="1.3" opacity="0.6"/><line x1="130.39999999999998" y1="8" x2="130.39999999999998" y2="62" stroke="#04070B" stroke-width="4" opacity="0.92"/><line x1="132.79999999999998" y1="8" x2="132.79999999999998" y2="62" stroke="#3D4754" stroke-width="1.3" opacity="0.6"/><line x1="144.0" y1="8" x2="144.0" y2="62" stroke="#04070B" stroke-width="4" opacity="0.92"/><line x1="146.4" y1="8" x2="146.4" y2="62" stroke="#3D4754" stroke-width="1.3" opacity="0.6"/></g>
</svg>